<svg xmlns="http://www.w3.org/2000/svg" viewBox="0 0 512 512" role="img" aria-label="ARTales">
  <defs>
    <radialGradient id="g" cx="22%" cy="14%" r="74%">
      <stop offset="0%" stop-color="#2a2417"/>
      <stop offset="42%" stop-color="#111317"/>
      <stop offset="100%" stop-color="#090b0d"/>
    </radialGradient>
    <linearGradient id="gold" x1="150" y1="70" x2="360" y2="460" gradientUnits="userSpaceOnUse">
      <stop stop-color="#f0d188"/>
      <stop offset="48%" stop-color="#c79a3b"/>
      <stop offset="100%" stop-color="#f6dfa3"/>
    </linearGradient>
  </defs>
  <rect x="28" y="28" width="456" height="456" rx="104" fill="url(#g)" stroke="#c79a3b" stroke-width="12"/>
  <path d="M256 66 C324 173 371 252 371 332 C371 409 321 456 256 456 C191 456 141 409 141 332 C141 252 188 173 256 66 Z" fill="none" stroke="url(#gold)" stroke-width="24" stroke-linejoin="round"/>
  <path d="M256 90 C260 172 258 240 256 314 C254 367 251 414 246 456" fill="none" stroke="#f0d188" stroke-width="16" stroke-linecap="round"/>
  <path d="M212 232 L244 200 L276 232 L244 264 Z M268 282 L300 250 L332 282 L300 314 Z M180 282 L212 250 L244 282 L212 314 Z" fill="#d7ad55"/>
  <circle cx="256" cy="456" r="13" fill="#d7ad55"/>
</svg>
